HIERARCHY
ROOT Hips
{
	OFFSET -0.001795 -0.223333 0.028219
	CHANNELS 6 Xposition Yposition Zposition Zrotation Yrotation Xrotation 
	JOINT LeftUpLeg
	{
		OFFSET 0.069520 -0.091406 -0.006815
		CHANNELS 3 Zrotation Yrotation Xrotation
		JOINT LeftLeg
		{
			OFFSET 0.034277 -0.375199 -0.004496
			CHANNELS 3 Zrotation Yrotation Xrotation
			JOINT LeftFoot
			{
				OFFSET -0.013596 -0.397961 -0.043693
				CHANNELS 3 Zrotation Yrotation Xrotation
				JOINT LeftToe
				{
					OFFSET 0.026358 -0.055791 0.119288
					CHANNELS 3 Zrotation Yrotation Xrotation
					End Site
					{
						OFFSET 0.000000 0.000000 0.000000
					}
				}
			}
		}
	}
	JOINT RightUpLeg
	{
		OFFSET -0.067670 -0.090522 -0.004320
		CHANNELS 3 Zrotation Yrotation Xrotation
		JOINT RightLeg
		{
			OFFSET -0.038290 -0.382569 -0.008850
			CHANNELS 3 Zrotation Yrotation Xrotation
			JOINT RightFoot
			{
				OFFSET 0.015774 -0.398415 -0.042312
				CHANNELS 3 Zrotation Yrotation Xrotation
				JOINT RightToe
				{
					OFFSET -0.025372 -0.048144 0.123348
					CHANNELS 3 Zrotation Yrotation Xrotation
					End Site
					{
						OFFSET 0.000000 0.000000 0.000000
					}
				}
			}
		}
	}
	JOINT Spine
	{
		OFFSET -0.002533 0.108963 -0.026696
		CHANNELS 3 Zrotation Yrotation Xrotation
		JOINT Spine1
		{
			OFFSET 0.005487 0.135180 0.001092
			CHANNELS 3 Zrotation Yrotation Xrotation
			JOINT Spine2
			{
				OFFSET 0.001457 0.052922 0.025425
				CHANNELS 3 Zrotation Yrotation Xrotation
				JOINT Neck
				{
					OFFSET -0.002778 0.213870 -0.042857
					CHANNELS 3 Zrotation Yrotation Xrotation
					JOINT Head
					{
						OFFSET 0.005152 0.064970 0.051349
						CHANNELS 3 Zrotation Yrotation Xrotation
						End Site
						{
							OFFSET 0.000000 0.000000 0.000000
						}
					}
				}
				JOINT LeftShoulder
				{
					OFFSET 0.078845 0.121749 -0.034090
					CHANNELS 3 Zrotation Yrotation Xrotation
					JOINT LeftArm
					{
						OFFSET 0.090977 0.030469 -0.008868
						CHANNELS 3 Zrotation Yrotation Xrotation
						JOINT LeftForeArm
						{
							OFFSET 0.259612 -0.012772 -0.027456
							CHANNELS 3 Zrotation Yrotation Xrotation
							JOINT LeftHand
							{
								OFFSET 0.249234 0.008986 -0.001171
								CHANNELS 3 Zrotation Yrotation Xrotation
								End Site
								{
									OFFSET 0.000000 0.000000 0.000000
								}
							}
						}
					}
				}
				JOINT RightShoulder
				{
					OFFSET -0.081759 0.118833 -0.038615
					CHANNELS 3 Zrotation Yrotation Xrotation
					JOINT RightArm
					{
						OFFSET -0.096012 0.032551 -0.009143
						CHANNELS 3 Zrotation Yrotation Xrotation
						JOINT RightForeArm
						{
							OFFSET -0.253742 -0.013329 -0.021401
							CHANNELS 3 Zrotation Yrotation Xrotation
							JOINT RightHand
							{
								OFFSET -0.255298 0.007772 -0.005559
								CHANNELS 3 Zrotation Yrotation Xrotation
								End Site
								{
									OFFSET 0.000000 0.000000 0.000000
								}
							}
						}
					}
				}
			}
		}
	}
}
MOTION
Frames: 11
Frame Time: 0.050000
0.000000 0.900841 0.000000 -1.157056 -37.599490 -0.476670 5.410716 1.613633 -24.553729 -2.882800 1.145588 9.939111 8.722966 14.433094 12.986707 0.000000 0.000000 0.000000 1.044597 -0.261758 5.581345 9.277935 0.260647 15.639826 -10.865241 -14.175075 -12.943372 0.000000 0.000000 0.000000 -3.185123 0.866244 16.571993 -9.022203 3.900929 -3.656643 6.110320 7.960071 14.200703 0.824503 -0.297184 -26.097738 0.000000 0.000000 0.000000 -21.436000 -9.557951 7.155455 -45.132877 -18.192014 -0.200980 -2.874577 -32.995869 2.794337 0.000000 0.000000 0.000000 19.843280 22.001349 6.647543 51.880183 27.345380 6.803811 5.532865 28.983375 1.721448 0.000000 0.000000 0.000000 
-0.024695 0.889354 0.037264 -2.537532 -38.427195 -0.077251 6.114534 1.827052 -23.592604 -4.080971 1.071508 4.817539 6.021130 9.879229 13.846937 0.000000 0.000000 0.000000 2.573941 -0.472808 7.318637 8.756665 0.515088 17.727447 -11.675501 -16.271836 -12.115068 0.000000 0.000000 0.000000 -4.976473 1.331900 17.305170 -7.372523 2.703747 -6.359892 6.879215 9.632102 19.302852 -1.434678 1.003850 -29.780291 0.000000 0.000000 0.000000 -24.225973 -9.248716 7.555521 -42.296025 -19.815663 -0.504860 -1.287737 -32.236570 2.293639 0.000000 0.000000 0.000000 17.835856 25.605960 8.859042 51.819255 31.248999 7.845778 1.489569 31.799701 0.964275 0.000000 0.000000 0.000000 
-0.050909 0.876942 0.076461 -2.217285 -34.327102 -0.038563 3.447731 1.043838 -26.944534 -2.176033 1.242681 14.096645 7.193016 12.941613 7.970195 0.000000 0.000000 0.000000 0.364181 -0.227278 5.815980 15.991120 -0.326306 25.068322 -11.686209 -19.188537 -11.686058 0.000000 0.000000 0.000000 -5.753220 1.485917 18.124360 -9.023095 4.008519 -3.062338 6.630488 8.252883 15.549107 -0.510685 0.774886 -29.255763 0.000000 0.000000 0.000000 -22.353148 -11.112214 7.810556 -43.073909 -18.564988 -0.411107 -0.708477 -30.936121 1.969719 0.000000 0.000000 0.000000 16.555772 25.329031 9.056928 53.141864 35.079330 10.138259 0.409911 31.931612 0.704320 0.000000 0.000000 0.000000 
-0.076114 0.870438 0.114644 -2.315849 -33.543329 -1.141467 3.354483 1.097376 -28.051411 -4.412434 3.172337 22.273200 6.634800 12.363868 5.940038 0.000000 0.000000 0.000000 -1.333485 0.072852 1.954858 23.273821 -1.529811 36.842617 -12.464493 -24.956356 -5.512598 0.000000 0.000000 0.000000 -7.662219 2.308716 20.767813 -9.286865 4.299584 -2.105000 5.445776 9.306544 15.055883 0.394234 0.627725 -29.273485 0.000000 0.000000 0.000000 -20.637263 -13.364352 8.169655 -41.732989 -19.084553 -0.052023 0.702194 -32.350150 1.565188 0.000000 0.000000 0.000000 16.074100 29.968075 12.074748 49.059484 37.568838 10.229091 -0.559381 35.517472 0.658314 0.000000 0.000000 0.000000 
-0.100473 0.866343 0.148923 -2.454505 -30.924758 -0.869195 3.440589 1.107359 -30.243653 -4.551783 4.476771 30.449328 5.532693 10.873765 1.815260 0.000000 0.000000 0.000000 -3.944313 0.519347 -3.414578 29.877782 -4.166682 43.347534 -14.719216 -31.741051 -0.872495 0.000000 0.000000 0.000000 -8.666866 2.960963 23.784168 -10.109064 4.800316 -1.683254 5.710880 8.277991 14.387403 -0.434651 1.202602 -29.991951 0.000000 0.000000 0.000000 -21.172253 -15.509806 9.209207 -38.807885 -20.586513 0.375764 4.873682 -32.622304 0.296728 0.000000 0.000000 0.000000 11.952908 31.795801 12.584074 50.264605 41.349159 12.162881 -3.873548 38.735096 -0.318390 0.000000 0.000000 0.000000 
-0.124286 0.864966 0.178204 -3.455583 -28.223202 -0.369185 4.233739 1.074220 -30.211037 -3.545871 4.501923 34.961913 3.675149 7.259778 -2.958894 0.000000 0.000000 0.000000 -3.401593 0.955384 -9.567650 32.164165 -5.971176 46.830010 -15.836611 -35.761130 -2.238465 0.000000 0.000000 0.000000 -9.118808 3.561295 27.268470 -10.289682 4.946412 -1.324798 4.676534 8.480559 13.395944 0.160447 1.251050 -30.482831 0.000000 0.000000 0.000000 -19.914055 -17.133542 9.258901 -37.724364 -21.401026 0.806984 9.800288 -35.576449 -1.295038 0.000000 0.000000 0.000000 11.948576 34.866089 14.604709 44.294999 44.622322 11.752823 -7.811637 41.075735 -1.587045 0.000000 0.000000 0.000000 
-0.149022 0.864981 0.204168 -4.463996 -23.413862 0.000593 4.598031 0.707315 -30.766810 -2.024464 3.453999 38.320559 2.296395 3.870468 -5.071737 0.000000 0.000000 0.000000 -3.223376 1.693611 -16.235259 33.271624 -8.151118 47.366094 -16.779530 -39.035439 -2.272732 0.000000 0.000000 0.000000 -9.114880 3.767409 30.951850 -10.050472 4.924538 -0.565456 4.162317 8.011948 11.610422 -0.369662 1.846826 -30.811458 0.000000 0.000000 0.000000 -20.207583 -18.302084 9.221353 -36.074269 -22.208812 1.204230 13.637802 -39.207095 -2.955353 0.000000 0.000000 0.000000 10.631255 35.606544 15.167161 41.677278 47.698007 12.216139 -11.738638 41.948134 -2.914360 0.000000 0.000000 0.000000 
-0.174718 0.865902 0.228057 -5.805757 -17.650493 -0.025115 5.503761 0.356562 -30.776484 -1.120961 2.197321 40.756208 0.956134 -0.310453 -7.702916 0.000000 0.000000 0.000000 -4.184331 2.340175 -22.882446 33.241321 -10.284707 46.736980 -17.953915 -41.389343 -0.575770 0.000000 0.000000 0.000000 -8.774401 3.530442 34.594571 -9.669902 4.807380 0.220677 4.050249 8.205747 10.589358 0.290291 2.000303 -31.570485 0.000000 0.000000 0.000000 -21.092957 -21.178278 9.995109 -33.644866 -22.762526 1.468099 18.943488 -43.789113 -5.814384 0.000000 0.000000 0.000000 9.708809 36.565517 15.999584 37.725241 50.092620 11.767765 -14.776969 42.834441 -3.947055 0.000000 0.000000 0.000000 
-0.201568 0.867635 0.251592 -7.540673 -11.990374 0.525923 7.732685 0.460022 -31.581599 -1.636228 1.531117 43.234710 0.215885 -3.249699 -8.885829 0.000000 0.000000 0.000000 -5.298688 2.663111 -29.275986 30.230713 -10.821899 45.569256 -17.883564 -40.468246 1.554161 0.000000 0.000000 0.000000 -7.891297 2.756886 37.201601 -9.877682 5.095157 2.221714 4.178093 7.614599 7.546184 1.273018 1.742657 -30.569221 0.000000 0.000000 0.000000 -22.051352 -21.880820 9.818229 -32.578677 -23.036542 1.826603 23.914630 -48.047083 -8.988207 0.000000 0.000000 0.000000 10.541847 38.197557 17.577841 32.987126 50.455262 10.161715 -16.886243 43.095642 -4.709604 0.000000 0.000000 0.000000 
-0.230563 0.866890 0.276009 -9.065302 -5.354163 0.251351 9.340250 0.162819 -31.607450 -0.496110 -0.451880 45.148812 0.106210 -6.068000 -11.691917 0.000000 0.000000 0.000000 -7.058177 2.050621 -33.559267 26.984049 -10.804463 42.465138 -16.554460 -37.001314 3.676794 0.000000 0.000000 0.000000 -7.357171 1.739035 40.037400 -9.689002 4.998962 3.290984 4.310381 9.170824 6.258465 2.140127 1.852805 -30.392474 0.000000 0.000000 0.000000 -21.691485 -24.643715 9.995680 -31.494188 -23.518516 2.289783 29.239979 -51.043677 -12.941434 0.000000 0.000000 0.000000 11.358613 37.791164 18.601768 29.793234 52.553827 9.635136 -18.584546 41.666852 -4.973736 0.000000 0.000000 0.000000 
-0.261657 0.864246 0.301503 -10.708956 0.520455 0.197868 11.864066 0.166002 -32.368811 -1.137550 -1.471971 48.229622 0.616085 -8.186857 -14.964769 0.000000 0.000000 0.000000 -7.655517 1.301170 -36.110287 22.431898 -9.480474 39.221683 -13.359178 -31.104654 1.755886 0.000000 0.000000 0.000000 -7.621331 0.893837 42.211738 -10.476468 5.320119 3.726694 5.848308 9.808871 4.706710 3.213601 1.545480 -29.245977 0.000000 0.000000 0.000000 -22.334355 -25.053861 9.427439 -30.112726 -24.085568 2.632867 31.852121 -53.567767 -15.541195 0.000000 0.000000 0.000000 12.215630 39.802106 20.630683 24.730487 52.702776 7.561174 -20.360116 40.636711 -5.450370 0.000000 0.000000 0.000000 
